<svg width="610" height="610" viewBox="0 0 610 610" fill="none" xmlns="http://www.w3.org/2000/svg">
<rect y="0.284668" width="609.715" height="609.715" rx="135.492" fill="#E7FFF0"/>
<path opacity="0.35" d="M175.814 426.118V200.297C175.814 173.57 197.477 151.907 224.205 151.907H385.505C412.232 151.907 433.895 173.57 433.895 200.297V426.118C433.895 452.845 412.232 474.508 385.505 474.508H224.205C197.477 474.508 175.814 452.845 175.814 426.118Z" fill="#00A23A"/>
<path d="M345.181 184.167H264.531C251.159 184.167 240.336 173.328 240.336 159.972C240.336 146.616 251.159 135.777 264.531 135.777H345.181C358.553 135.777 369.376 146.616 369.376 159.972C369.376 173.328 358.553 184.167 345.181 184.167Z" fill="#00A23A"/>
<path d="M353.247 313.207C349.117 313.207 344.988 311.626 341.843 308.481L325.713 292.351C319.406 286.044 319.406 275.85 325.713 269.543C332.019 263.236 342.214 263.236 348.52 269.543L353.247 274.269L374.103 253.413C380.409 247.106 390.604 247.106 396.911 253.413C403.217 259.72 403.217 269.914 396.911 276.221L364.65 308.481C361.505 311.626 357.376 313.207 353.247 313.207Z" fill="#00A23A"/>
<path d="M272.599 313.207H240.339C231.419 313.207 224.209 305.981 224.209 297.077C224.209 288.173 231.419 280.947 240.339 280.947H272.599C281.519 280.947 288.729 288.173 288.729 297.077C288.729 305.981 281.519 313.207 272.599 313.207Z" fill="#00A23A"/>
<path d="M353.247 409.988C349.117 409.988 344.988 408.407 341.843 405.262L325.713 389.132C319.406 382.825 319.406 372.631 325.713 366.324C332.019 360.017 342.214 360.017 348.52 366.324L353.247 371.05L374.103 350.194C380.409 343.887 390.604 343.887 396.911 350.194C403.217 356.501 403.217 366.695 396.911 373.002L364.65 405.262C361.505 408.407 357.376 409.988 353.247 409.988Z" fill="#00A23A"/>
<path d="M272.599 409.989H240.339C231.419 409.989 224.209 402.762 224.209 393.859C224.209 384.955 231.419 377.729 240.339 377.729H272.599C281.519 377.729 288.729 384.955 288.729 393.859C288.729 402.762 281.519 409.989 272.599 409.989Z" fill="#00A23A"/>
</svg>
