<svg width="611" height="610" viewBox="0 0 611 610" fill="none" xmlns="http://www.w3.org/2000/svg">
<rect x="0.642578" y="0.284668" width="609.715" height="609.715" rx="135.492" fill="#E7FFF0"/>
<path opacity="0.35" d="M305.5 296.674C342.915 296.674 373.246 266.343 373.246 228.928C373.246 191.513 342.915 161.182 305.5 161.182C268.085 161.182 237.754 191.513 237.754 228.928C237.754 266.343 268.085 296.674 305.5 296.674Z" fill="#00A23A"/>
<path opacity="0.35" d="M178.476 330.547C201.861 330.547 220.817 311.59 220.817 288.206C220.817 264.821 201.861 245.865 178.476 245.865C155.092 245.865 136.135 264.821 136.135 288.206C136.135 311.59 155.092 330.547 178.476 330.547Z" fill="#00A23A"/>
<path opacity="0.35" d="M432.525 330.547C455.909 330.547 474.866 311.59 474.866 288.206C474.866 264.821 455.909 245.865 432.525 245.865C409.14 245.865 390.184 264.821 390.184 288.206C390.184 311.59 409.14 330.547 432.525 330.547Z" fill="#00A23A"/>
<path d="M356.31 449.103H254.69C226.627 449.103 203.881 422.563 203.881 389.825C203.881 357.087 226.627 330.547 254.69 330.547H356.31C384.374 330.547 407.119 357.087 407.119 389.825C407.119 422.563 384.374 449.103 356.31 449.103Z" fill="#00A23A"/>
<path opacity="0.35" d="M467.261 364.42H142.435C120.248 364.42 102.262 382.407 102.262 404.594V408.946C102.262 431.116 120.248 449.103 142.435 449.103H467.261C490.159 449.103 508.739 430.523 508.739 407.608V405.898C508.739 383 490.159 364.42 467.261 364.42Z" fill="#00A23A"/>
</svg>
