<svg width="610" height="610" viewBox="0 0 610 610" fill="none" xmlns="http://www.w3.org/2000/svg">
<rect x="0.285156" width="609.715" height="609.715" rx="135.492" fill="#E7FFF0"/>
<path d="M351.1 219.952C333.883 184.398 297.882 160.896 257.508 160.896C199.724 160.896 152.715 208.173 152.715 266.289C152.715 282.08 156.061 297.226 162.677 311.335L152.889 360.88C151.651 367.181 157.145 372.758 163.374 371.506L212.956 361.585C219.63 364.794 226.536 367.22 233.636 368.903C217.734 292.686 274.841 221.146 351.1 219.933V219.952Z" fill="#00A23A"/>
<path d="M447.605 388.431C449.308 384.771 450.797 381.053 452.074 377.277H451.745C474.05 311.079 427.157 241.495 357.92 238.11C298.356 235.331 248.871 283.566 248.871 343.385C248.871 403.204 295.532 448.7 352.91 448.778C368.483 448.758 383.398 445.373 397.308 438.701C451.61 449.561 447.373 448.798 448.631 448.798C454.279 448.798 458.497 443.573 457.394 437.996L447.605 388.45V388.431Z" fill="#00A23A"/>
<path d="M352.772 273.001C316.074 273.001 286.225 303.214 286.225 340.315C286.225 377.416 316.074 407.629 352.772 407.629C389.47 407.629 419.301 377.435 419.301 340.315C419.301 303.195 389.451 273.001 352.772 273.001Z" fill="#00A23A" stroke="#E7FFF0" stroke-width="9.41261" stroke-miterlimit="10"/>
<path d="M340.212 363.682L318.661 341.883C315.566 338.224 315.992 332.725 319.609 329.595C322.84 326.796 327.599 326.796 330.83 329.595L346.306 345.21L374.705 316.523C378.322 313.392 383.758 313.823 386.854 317.482C389.62 320.75 389.62 325.564 386.854 328.831L352.38 363.701C349.014 367.087 343.598 367.087 340.231 363.701L340.212 363.682Z" fill="#E7FFF0"/>
</svg>
