<svg width="610" height="636" viewBox="0 0 610 636" fill="none" xmlns="http://www.w3.org/2000/svg">
<rect y="25.4048" width="609.715" height="609.715" rx="135.492" fill="#E7FFF0"/>
<path d="M310.797 261.449H297.553C292.074 261.449 287.621 265.902 287.621 271.382V387.16H320.706V271.382C320.706 265.902 316.254 261.449 310.774 261.449H310.797Z" fill="#00A23A"/>
<path d="M340.549 387.163H363.702C369.181 387.163 373.634 382.71 373.634 377.229V297.83C373.634 292.349 369.181 287.896 363.702 287.896H340.549V387.14V387.163Z" fill="#00A23A"/>
<path d="M267.806 314.364H244.677C239.197 314.364 234.744 318.817 234.744 324.297V377.231C234.744 382.711 239.197 387.164 244.677 387.164H267.806V314.387V314.364Z" fill="#00A23A"/>
<path d="M135.568 308.491C134.838 314.406 139.45 319.635 145.409 319.635H185.778C190.619 319.635 194.752 316.141 195.574 311.346C203.337 265.058 239.642 228.749 285.924 220.985C290.696 220.185 294.213 216.052 294.213 211.188V170.814C294.213 164.854 288.984 160.242 283.07 160.972C245.852 165.608 210.689 182.803 184.043 209.453C157.42 236.079 140.204 271.246 135.568 308.491Z" fill="#00A23A"/>
<path d="M368.078 419.38C349.24 432.83 327.161 439.932 304.213 439.932C250.213 439.932 204.524 401.226 195.574 347.904C194.775 343.131 190.642 339.615 185.778 339.615H145.409C139.45 339.615 134.838 344.844 135.568 350.759C146.117 435.616 218.612 499.625 304.213 499.625C342.345 499.625 378.398 487.248 408.492 463.818C413.196 460.142 413.629 453.2 409.405 448.975L380.841 420.408C377.416 416.982 372.005 416.526 368.055 419.357L368.078 419.38Z" fill="#00A23A"/>
<path d="M415.1 200.867L372.745 243.227C358.543 232.015 341.418 224.159 322.467 220.985C317.695 220.186 314.201 216.053 314.201 211.211V170.815C314.201 165.266 318.699 160.904 324.111 160.904C324.522 160.904 324.933 160.927 325.344 160.973C359.616 165.243 390.486 179.607 415.1 200.867Z" fill="#00A23A"/>
<path d="M474.218 329.636C474.218 348.704 471.112 367.269 465.107 384.807C459.079 402.345 450.129 418.878 438.415 433.927C434.762 438.654 427.798 439.088 423.574 434.863L395.01 406.296C391.585 402.87 391.128 397.458 393.959 393.508C407.408 374.668 414.509 352.586 414.509 329.636C414.509 303.101 405.148 278.575 389.324 259.416L431.611 217.147C458.212 247.29 474.218 286.842 474.218 329.636Z" fill="#00A23A"/>
</svg>
