<svg width="83" height="82" viewBox="0 0 83 82" fill="none" xmlns="http://www.w3.org/2000/svg">
<path fill-rule="evenodd" clip-rule="evenodd" d="M55.1667 11.0791H27.8333C18.3985 11.0791 10.75 18.7276 10.75 28.1624V55.4958C10.75 64.9306 18.3985 72.5791 27.8333 72.5791H55.1667C64.6015 72.5791 72.25 64.9306 72.25 55.4958V28.1624C72.25 18.7276 64.6015 11.0791 55.1667 11.0791ZM66.2708 55.4958C66.252 61.6205 61.2914 66.5811 55.1667 66.5999H27.8333C21.7084 66.5811 16.7479 61.6205 16.7292 55.4958V28.1624C16.7479 22.0375 21.7084 17.077 27.8333 17.0583H55.1667C61.2914 17.077 66.252 22.0375 66.2708 28.1624V55.4958ZM57.7292 29.0166C59.6162 29.0166 61.1458 27.4869 61.1458 25.5999C61.1458 23.713 59.6162 22.1833 57.7292 22.1833C55.8421 22.1833 54.3125 23.713 54.3125 25.5999C54.3125 27.4869 55.8421 29.0166 57.7292 29.0166ZM41.5 26.4541C33.0086 26.4541 26.125 33.3377 26.125 41.8291C26.125 50.3205 33.0086 57.2041 41.5 57.2041C49.9914 57.2041 56.875 50.3205 56.875 41.8291C56.8842 37.7486 55.2671 33.8326 52.3817 30.9473C49.4964 28.062 45.5805 26.445 41.5 26.4541ZM32.1042 41.8291C32.1042 47.0183 36.3108 51.2249 41.5 51.2249C46.6892 51.2249 50.8958 47.0183 50.8958 41.8291C50.8958 36.6399 46.6892 32.4333 41.5 32.4333C36.3108 32.4333 32.1042 36.6399 32.1042 41.8291Z" fill="#F5F5F5"/>
</svg>
