<svg width="83" height="82" viewBox="0 0 83 82" fill="none" xmlns="http://www.w3.org/2000/svg">

<path fill-rule="evenodd" clip-rule="evenodd" d="M15.875 11.0791C13.0445 11.0791 10.75 13.3736 10.75 16.2041V67.4541C10.75 70.2845 13.0445 72.5791 15.875 72.5791H67.125C69.9554 72.5791 72.25 70.2845 72.25 67.4541V16.2041C72.25 13.3736 69.9554 11.0791 67.125 11.0791H15.875ZM29.6126 24.7551C29.6318 28.0222 27.1863 30.0354 24.2842 30.021C21.5503 30.0066 19.1672 27.8301 19.1816 24.7599C19.196 21.8722 21.4783 19.5516 24.4428 19.6189C27.4505 19.6861 29.6318 21.8915 29.6126 24.7551ZM42.4556 34.1818H33.8457H33.8409V63.4279H42.9408V62.7456C42.9408 61.4476 42.9398 60.1493 42.9388 58.8506C42.936 55.3868 42.9329 51.9192 42.9507 48.4564C42.9555 47.6156 42.9938 46.7412 43.21 45.9387C44.0218 42.9405 46.7176 41.0043 49.7253 41.4803C51.6567 41.7826 52.9346 42.9023 53.4727 44.7234C53.8044 45.8618 53.9534 47.087 53.9678 48.274C54.0067 51.8533 54.0012 55.4326 53.9958 59.0122C53.9937 60.2757 53.9917 61.5399 53.9917 62.8033V63.4231H63.1207V62.7217C63.1207 61.1773 63.12 59.6334 63.119 58.0894C63.1172 54.2302 63.1152 50.3711 63.1254 46.5106C63.1302 44.7664 62.943 43.0465 62.5152 41.36C61.8763 38.8518 60.5551 36.7762 58.4074 35.2773C56.8842 34.2106 55.2121 33.5235 53.3432 33.4467C53.1303 33.4378 52.9158 33.4262 52.7002 33.4146C51.7445 33.3629 50.7732 33.3104 49.8596 33.4947C47.2458 34.0184 44.9495 35.2148 43.2148 37.3239C43.0132 37.5658 42.8161 37.8114 42.5219 38.1781L42.4556 38.2611V34.1818ZM19.9123 63.4375H28.9691V34.2008H19.9123V63.4375Z" fill="#F5F5F5"/>
</svg>
