<svg width="108" height="30" viewBox="0 0 108 30" fill="none" xmlns="http://www.w3.org/2000/svg">
<g clip-path="url(#clip0_504_2285)">
<path d="M99.0147 29.6211H22.5178C21.8619 29.6211 21.5848 29.093 21.8992 28.4404L23.5753 24.9625C23.8898 24.3111 24.6758 23.7817 25.3318 23.7817H101.829C102.485 23.7817 102.762 24.3099 102.447 24.9625L100.771 28.4404C100.457 29.0918 99.6707 29.6211 99.0147 29.6211Z" fill="#1ED760"/>
<path d="M12.7193 4.01004C12.6141 4.22041 12.492 4.3697 12.3529 4.45566C12.2138 4.54162 12.0486 4.58573 11.8575 4.58573C11.6664 4.58573 11.4503 4.51108 11.2106 4.36292C10.9708 4.21476 10.688 4.04963 10.3623 3.86754C10.0366 3.68544 9.65542 3.52032 9.21998 3.37102C8.78341 3.22286 8.2688 3.14821 7.67502 3.14821C7.13779 3.14821 6.67069 3.21268 6.2737 3.34162C5.87559 3.47055 5.54081 3.65038 5.26711 3.88111C4.99453 4.11183 4.78982 4.38667 4.65636 4.70787C4.52177 5.02908 4.45504 5.38083 4.45504 5.76424C4.45504 6.25283 4.59189 6.66 4.86447 6.98573C5.13704 7.31146 5.49896 7.58968 5.9491 7.81928C6.39925 8.04887 6.91159 8.25585 7.48728 8.43681C8.06183 8.6189 8.64882 8.8123 9.24826 9.01815C9.84656 9.22399 10.4336 9.46376 11.0092 9.73634C11.5838 10.0089 12.0961 10.3539 12.5474 10.7712C12.9975 11.1886 13.3595 11.6986 13.6332 12.3015C13.9057 12.9054 14.0426 13.6383 14.0426 14.5001C14.0426 15.4389 13.882 16.3188 13.5608 17.1377C13.2396 17.9565 12.7702 18.6702 12.1527 19.2787C11.5352 19.8871 10.7796 20.3667 9.88841 20.7162C8.99717 21.0656 7.977 21.241 6.82677 21.241C6.16513 21.241 5.51367 21.1765 4.87238 21.0476C4.22997 20.9186 3.6147 20.7343 3.02545 20.4945C2.43619 20.2547 1.88539 19.9674 1.37304 19.6327C0.860697 19.2968 0.402639 18.9235 0 18.5118L1.12083 16.6581C1.22601 16.5247 1.35269 16.4116 1.50198 16.3199C1.65014 16.2295 1.81527 16.1831 1.99736 16.1831C2.23713 16.1831 2.495 16.2815 2.77323 16.4771C3.05146 16.6739 3.37945 16.8922 3.75721 17.1309C4.1361 17.3706 4.58058 17.5889 5.09406 17.7846C5.60641 17.9814 6.22281 18.0787 6.941 18.0787C8.0426 18.0787 8.89538 17.8174 9.49934 17.2949C10.1033 16.7723 10.4053 16.0225 10.4053 15.0453C10.4053 14.499 10.2684 14.0534 9.99585 13.7084C9.72328 13.3635 9.36136 13.0739 8.91122 12.8387C8.46107 12.6046 7.94873 12.4055 7.37304 12.2427C6.79849 12.0798 6.21376 11.9022 5.61998 11.7111C5.0262 11.5199 4.44147 11.2892 3.86692 11.0212C3.29237 10.7531 2.77889 10.4036 2.32875 9.97159C1.87861 9.54067 1.51668 9.00118 1.24411 8.35425C0.971536 7.70731 0.834684 6.90995 0.834684 5.96103C0.834684 5.20439 0.985108 4.46584 1.28709 3.74765C1.58907 3.02946 2.02903 2.39157 2.60924 1.83624C3.18944 1.28092 3.90085 0.835302 4.74345 0.499393C5.58605 0.163483 6.54967 -0.00390625 7.63204 -0.00390625C8.85806 -0.00390625 9.98907 0.188365 11.0239 0.570646C12.0588 0.954058 12.9399 1.49016 13.6682 2.18007L12.7193 4.00552V4.01004Z" fill="white"/>
<path d="M16.8019 25.8291V6.2672H18.9723C19.2019 6.2672 19.3987 6.32036 19.5616 6.42554C19.7244 6.53073 19.8296 6.69359 19.8783 6.91414L20.1655 8.27927C20.7593 7.59953 21.4424 7.04873 22.2138 6.62686C22.9851 6.205 23.8877 5.99463 24.9226 5.99463C25.7278 5.99463 26.463 6.16202 27.1291 6.49793C27.7953 6.83384 28.3699 7.31904 28.8539 7.95693C29.338 8.59369 29.7112 9.37974 29.9748 10.314C30.2383 11.2482 30.3695 12.3192 30.3695 13.526C30.3695 14.6276 30.2213 15.6489 29.9239 16.5877C29.6264 17.5264 29.2034 18.3418 28.6515 19.0306C28.1007 19.7205 27.4345 20.26 26.6541 20.648C25.8726 21.0359 24.9983 21.2304 24.0313 21.2304C23.1978 21.2304 22.4909 21.1038 21.9107 20.8493C21.3305 20.5959 20.8113 20.2431 20.351 19.7929V25.8291H16.8008H16.8019ZM23.7011 8.79614C22.9636 8.79614 22.3337 8.95222 21.8111 9.26324C21.2886 9.5754 20.8023 10.0131 20.3521 10.5786V17.1905C20.7548 17.6893 21.1925 18.0365 21.6675 18.2321C22.1414 18.4289 22.6515 18.5262 23.1978 18.5262C23.744 18.5262 24.2202 18.4255 24.6568 18.2242C25.0922 18.0229 25.462 17.7164 25.764 17.3047C26.066 16.893 26.2979 16.3728 26.4607 15.7451C26.6236 15.1173 26.705 14.3777 26.705 13.5249C26.705 12.6721 26.6349 11.9313 26.4969 11.333C26.3578 10.7347 26.1587 10.2484 25.9009 9.87399C25.643 9.49962 25.3286 9.22705 24.9599 9.05514C24.5912 8.88209 24.1716 8.79614 23.7022 8.79614H23.7011Z" fill="white"/>
<path d="M39.3516 6.03613C40.4533 6.03613 41.4519 6.2137 42.3488 6.56771C43.2446 6.92284 44.0091 7.42501 44.6414 8.07647C45.2736 8.72793 45.7622 9.52303 46.1072 10.4629C46.4521 11.4016 46.624 12.4512 46.624 13.6105C46.624 14.7698 46.451 15.8341 46.1072 16.7728C45.7622 17.7115 45.2736 18.5112 44.6414 19.1728C44.0091 19.8344 43.2446 20.3423 42.3488 20.6963C41.4531 21.0503 40.4544 21.2278 39.3516 21.2278C38.2489 21.2278 37.248 21.0503 36.3477 20.6963C35.4474 20.3423 34.6783 19.8344 34.0404 19.1728C33.4025 18.5112 32.9094 17.7115 32.5599 16.7728C32.2105 15.8341 32.0352 14.78 32.0352 13.6105C32.0352 12.441 32.2105 11.4028 32.5599 10.4629C32.9094 9.52416 33.4025 8.72906 34.0404 8.07647C34.6772 7.42501 35.4463 6.92171 36.3477 6.56771C37.248 6.2137 38.25 6.03613 39.3516 6.03613ZM39.3516 18.4976C40.5777 18.4976 41.4859 18.0859 42.0751 17.2614C42.6644 16.438 42.9596 15.2301 42.9596 13.6399C42.9596 12.0497 42.6644 10.8373 42.0751 10.0037C41.4859 9.17016 40.5777 8.75282 39.3516 8.75282C38.1256 8.75282 37.1858 9.17242 36.592 10.0105C35.9982 10.8497 35.7008 12.0588 35.7008 13.6399C35.7008 15.2211 35.9971 16.4256 36.592 17.2546C37.1858 18.0836 38.1064 18.4976 39.3516 18.4976Z" fill="white"/>
<path d="M49.3984 21.0133V6.2672H51.4829C51.8471 6.2672 52.1004 6.33393 52.2441 6.46852C52.3877 6.60311 52.4838 6.83271 52.5313 7.15844L52.7474 8.94091C53.2744 8.03044 53.8919 7.31225 54.6011 6.7852C55.3102 6.25815 56.1053 5.99463 56.9875 5.99463C57.7159 5.99463 58.3198 6.16202 58.7983 6.49793L58.3379 9.15693C58.3085 9.32997 58.2463 9.45212 58.1513 9.52337C58.0552 9.59576 57.9262 9.63082 57.7634 9.63082C57.6197 9.63082 57.4229 9.59802 57.1741 9.53016C56.9253 9.46343 56.5939 9.4295 56.1822 9.4295C55.4437 9.4295 54.8114 9.63308 54.2855 10.0402C53.7585 10.4474 53.3129 11.0446 52.9487 11.8295V21.0133H49.3984Z" fill="white"/>
<path d="M65.9856 21.2434C64.711 21.2434 63.7293 20.8815 63.0394 20.1588C62.3495 19.435 62.0045 18.4363 62.0045 17.1616V8.92563H60.5093C60.317 8.92563 60.1519 8.86342 60.0128 8.73901C59.8737 8.6146 59.8047 8.42799 59.8047 8.17803V6.76993L62.1764 6.38199L62.924 2.35786C62.9625 2.16672 63.0507 2.01743 63.1898 1.91225C63.3289 1.80706 63.5031 1.75391 63.7146 1.75391H65.5547V6.3967H69.4352V8.92676H65.5547V16.9185C65.5547 17.3788 65.6701 17.7373 65.8997 17.9963C66.1304 18.2553 66.4358 18.3843 66.8192 18.3843C67.0397 18.3843 67.2241 18.3582 67.3723 18.3051C67.5204 18.2519 67.6505 18.1976 67.7602 18.14C67.8699 18.0823 67.9683 18.028 68.0543 17.9748C68.1402 17.9228 68.2273 17.8957 68.3133 17.8957C68.4184 17.8957 68.5044 17.9217 68.5723 17.9748C68.639 18.028 68.7114 18.1072 68.7883 18.2123L69.8514 19.9371C69.3346 20.368 68.7397 20.6938 68.069 20.9143C67.3983 21.1349 66.7038 21.2446 65.9845 21.2446L65.9856 21.2434Z" fill="white"/>
<path d="M92.3177 21.2434C91.043 21.2434 90.0613 20.8815 89.3714 20.1588C88.6815 19.435 88.3365 18.4363 88.3365 17.1616V8.92563H86.8413C86.6491 8.92563 86.4839 8.86342 86.3448 8.73901C86.2057 8.6146 86.1367 8.42799 86.1367 8.17803V6.76993L88.5084 6.38199L89.256 2.35786C89.2945 2.16672 89.3827 2.01743 89.5218 1.91225C89.6609 1.80706 89.8351 1.75391 90.0466 1.75391H91.8868V6.3967H95.7673V8.92676H91.8868V16.9185C91.8868 17.3788 92.0021 17.7373 92.2317 17.9963C92.4624 18.2553 92.7678 18.3843 93.1512 18.3843C93.3718 18.3843 93.5561 18.3582 93.7043 18.3051C93.8525 18.2519 93.9825 18.1976 94.0922 18.14C94.2019 18.0823 94.3003 18.028 94.3863 17.9748C94.4722 17.9228 94.5593 17.8957 94.6453 17.8957C94.7505 17.8957 94.8364 17.9217 94.9043 17.9748C94.971 18.028 95.0434 18.1072 95.1203 18.2123L96.1835 19.9371C95.6666 20.368 95.0717 20.6938 94.401 20.9143C93.7303 21.1349 93.0359 21.2446 92.3165 21.2446L92.3177 21.2434Z" fill="white"/>
<path d="M98.6016 21.0133V6.2672H100.686C101.05 6.2672 101.304 6.33393 101.448 6.46852C101.592 6.60311 101.688 6.83271 101.736 7.15844L101.952 8.94091C102.479 8.03044 103.096 7.31225 103.805 6.7852C104.514 6.25815 105.31 5.99463 106.192 5.99463C106.92 5.99463 107.524 6.16202 108.003 6.49793L107.542 9.15693C107.513 9.32997 107.451 9.45212 107.356 9.52337C107.259 9.59576 107.13 9.63082 106.968 9.63082C106.824 9.63082 106.627 9.59802 106.378 9.53016C106.13 9.46343 105.798 9.4295 105.386 9.4295C104.648 9.4295 104.016 9.63308 103.49 10.0402C102.963 10.4474 102.517 11.0446 102.153 11.8295V21.0133H98.6027H98.6016Z" fill="white"/>
<path d="M80.4919 9.77929L75.8966 12.1793C75.7869 12.237 75.6579 12.2472 75.5403 12.2076L72.11 11.1636C71.748 11.0426 71.6836 10.5574 72.0025 10.3471L84.9718 1.80795C85.4253 1.50936 85.9298 2.10992 85.5554 2.50465L78.2966 9.27373L80.4919 9.77816V9.77929Z" fill="#1ED760"/>
<path d="M76.5066 13.0785L81.1019 10.6785C81.2116 10.6208 81.3405 10.6106 81.4582 10.6502L84.8885 11.6941C85.2504 11.8152 85.3149 12.3004 84.996 12.5107L72.0267 21.0498C71.5732 21.3484 71.0687 20.7479 71.4431 20.3531L78.7019 13.5841L76.5066 13.0796V13.0785Z" fill="#1ED760"/>
<path d="M27.8695 28.0846C27.7269 28.0201 27.6127 27.9251 27.529 27.8007C27.4453 27.6763 27.4023 27.5293 27.4023 27.3585C27.4023 27.337 27.4046 27.2974 27.4114 27.2409H27.8864C27.8751 27.3856 27.9124 27.5066 27.9995 27.6028C28.0866 27.6989 28.211 27.7464 28.3739 27.7464C28.5481 27.7464 28.6838 27.7057 28.7822 27.6254C28.8806 27.5451 28.9292 27.4297 28.9292 27.2782C28.9292 27.1866 28.9043 27.1085 28.8557 27.0441C28.8071 26.9796 28.7449 26.9253 28.6702 26.8812C28.5956 26.8371 28.4926 26.7851 28.3614 26.7251C28.1873 26.6437 28.0493 26.569 27.9452 26.5034C27.8412 26.4378 27.7518 26.3462 27.6783 26.2297C27.6037 26.1132 27.5663 25.9673 27.5663 25.7909C27.5663 25.5952 27.6116 25.4245 27.7009 25.2786C27.7903 25.1327 27.9147 25.0195 28.073 24.9404C28.2314 24.8612 28.4101 24.8228 28.6091 24.8228C28.8082 24.8228 28.9801 24.8601 29.1237 24.9336C29.2674 25.0071 29.3771 25.1112 29.4517 25.2458C29.5264 25.3792 29.5592 25.5364 29.5501 25.7162H29.0457C29.057 25.5873 29.0219 25.4799 28.9405 25.3928C28.8591 25.3057 28.7415 25.2627 28.5876 25.2627C28.4248 25.2627 28.2958 25.3046 28.1986 25.3883C28.1013 25.472 28.0538 25.5839 28.0538 25.7264C28.0538 25.8146 28.0787 25.8916 28.1273 25.956C28.176 26.0205 28.2382 26.0759 28.3139 26.1212C28.3897 26.1664 28.4915 26.2207 28.6204 26.284C28.7946 26.3722 28.9337 26.4514 29.0389 26.5204C29.1441 26.5894 29.2346 26.6833 29.3104 26.802C29.3861 26.9196 29.4235 27.0655 29.4235 27.2386C29.4235 27.4218 29.3782 27.5847 29.2889 27.7272C29.1995 27.8708 29.0728 27.9828 28.91 28.0631C28.7471 28.1434 28.5605 28.183 28.3501 28.183C28.1703 28.183 28.0097 28.1502 27.8661 28.0857L27.8695 28.0846Z" fill="black"/>
<path d="M33.7227 25.7256C33.8686 25.8737 33.941 26.083 33.941 26.3533C33.941 26.4257 33.9342 26.5128 33.9195 26.6134L33.6752 28.1482H33.2002L33.4309 26.6937C33.4422 26.6055 33.4478 26.5422 33.4478 26.5048C33.4478 26.3318 33.4049 26.1995 33.32 26.1079C33.2341 26.0163 33.1165 25.971 32.9649 25.971C32.7828 25.971 32.629 26.0332 32.5046 26.1576C32.3802 26.282 32.301 26.4607 32.2671 26.6937L32.0363 28.1482H31.5613L31.7921 26.6937C31.8034 26.6055 31.809 26.5422 31.809 26.5048C31.809 26.3318 31.766 26.1995 31.6812 26.1079C31.5953 26.0163 31.4776 25.971 31.3261 25.971C31.144 25.971 30.9902 26.0332 30.8658 26.1576C30.7413 26.282 30.6622 26.4607 30.6282 26.6937V26.679L30.3975 28.1482H29.918L30.3263 25.5458H30.8058L30.7594 25.8477C30.8522 25.7403 30.963 25.6566 31.0942 25.5955C31.2243 25.5344 31.36 25.5039 31.5002 25.5039C31.6857 25.5039 31.8441 25.548 31.9775 25.6362C32.111 25.7245 32.2037 25.8523 32.2569 26.0185C32.3496 25.8613 32.4774 25.7358 32.6392 25.643C32.802 25.5503 32.9683 25.5039 33.1391 25.5039C33.3834 25.5039 33.5779 25.5774 33.7238 25.7256H33.7227Z" fill="black"/>
<path d="M34.6918 26.1403C34.8196 25.939 34.9757 25.7818 35.1611 25.6698C35.3466 25.5579 35.54 25.5024 35.7414 25.5024C35.9234 25.5024 36.0761 25.542 36.1994 25.6223C36.3227 25.7026 36.4154 25.8022 36.4765 25.922L36.5353 25.5443H37.0194L36.6111 28.1467H36.127L36.1904 27.7599C36.0897 27.8832 35.963 27.985 35.8092 28.0664C35.6554 28.1479 35.4903 28.1897 35.3104 28.1897C35.1306 28.1897 34.9813 28.1456 34.8456 28.0574C34.7099 27.9692 34.6036 27.8436 34.5255 27.6819C34.4486 27.5202 34.4102 27.3335 34.4102 27.122C34.4102 27.027 34.4181 26.932 34.435 26.8336C34.4769 26.5724 34.5617 26.3405 34.6895 26.1392L34.6918 26.1403ZM36.351 26.6504C36.351 26.4389 36.2955 26.2738 36.1847 26.1516C36.0739 26.0306 35.9359 25.9695 35.7708 25.9695C35.6475 25.9695 35.5265 26.0035 35.4088 26.0713C35.2912 26.1392 35.1883 26.2387 35.1023 26.3688C35.0152 26.5 34.9576 26.6549 34.9304 26.8336C34.9191 26.8936 34.9135 26.9581 34.9135 27.027C34.9135 27.2408 34.9689 27.4105 35.0797 27.5349C35.1906 27.6593 35.3285 27.7215 35.4937 27.7215C35.6169 27.7215 35.738 27.6864 35.8556 27.6174C35.9732 27.5484 36.0761 27.4466 36.1621 27.3132C36.248 27.1797 36.3069 27.0225 36.334 26.8427C36.3453 26.7827 36.351 26.7183 36.351 26.6493V26.6504Z" fill="black"/>
<path d="M38.5013 25.6348C38.6313 25.5466 38.7772 25.5024 38.9367 25.5024L38.8485 26.06H38.7264C38.5409 26.06 38.3927 26.1121 38.2807 26.2161C38.1688 26.3202 38.0896 26.5 38.0455 26.7545L37.8272 28.1479H37.3477L37.7559 25.5454H38.2355L38.1642 26.0035C38.2592 25.8463 38.3723 25.723 38.5024 25.6348H38.5013Z" fill="black"/>
<path d="M39.7402 27.4251C39.7346 27.4692 39.7323 27.4975 39.7323 27.5099C39.7323 27.5755 39.7504 27.6242 39.7866 27.6536C39.8228 27.683 39.8828 27.6988 39.9676 27.6988H40.2616L40.1904 28.1478H39.8115C39.626 28.1478 39.4846 28.106 39.3874 28.0223C39.289 27.9386 39.2403 27.8063 39.2403 27.623C39.2403 27.554 39.246 27.4873 39.2573 27.4251L39.4846 25.9842H39.2109L39.2777 25.5454H39.5548L39.6554 24.8984H40.1395L40.0388 25.5454H40.5976L40.5308 25.9842H39.9676L39.7402 27.4251Z" fill="black"/>
<path d="M44.5055 24.8647L44.4388 25.2855H43.6606L43.2105 28.1481H42.731L43.1811 25.2855H42.3984L42.4652 24.8647H44.5044H44.5055Z" fill="black"/>
<path d="M46.6849 25.7776C46.8568 25.9608 46.9439 26.2063 46.9439 26.515C46.9439 26.5874 46.9371 26.6745 46.9224 26.7752C46.9111 26.8442 46.8919 26.929 46.8636 27.0296H45.0936C45.0913 27.0523 45.089 27.0851 45.089 27.1292C45.089 27.3147 45.1399 27.4628 45.2428 27.5737C45.3446 27.6834 45.4792 27.7388 45.6444 27.7388C45.9056 27.7388 46.1058 27.6178 46.246 27.3746H46.7629C46.6566 27.6144 46.4994 27.81 46.2924 27.9627C46.0854 28.1154 45.8457 28.1923 45.5731 28.1923C45.3797 28.1923 45.21 28.1493 45.0641 28.0645C44.9182 27.9797 44.8051 27.8575 44.7237 27.6981C44.6423 27.5386 44.6016 27.3531 44.6016 27.1382C44.6016 27.0466 44.6095 26.9493 44.6264 26.8453C44.6683 26.5772 44.7542 26.342 44.8832 26.1395C45.0121 25.936 45.1727 25.7799 45.365 25.669C45.5573 25.5593 45.7665 25.5039 45.9938 25.5039C46.2822 25.5039 46.513 25.5955 46.686 25.7776H46.6849ZM46.4519 26.5184C46.4519 26.3454 46.401 26.2085 46.2981 26.1079C46.1963 26.0072 46.0628 25.9563 45.9011 25.9563C45.7303 25.9563 45.5754 26.0174 45.4385 26.1407C45.3017 26.2639 45.2078 26.4302 45.1569 26.6417H46.444C46.4496 26.5852 46.4519 26.5444 46.4519 26.5184Z" fill="black"/>
<path d="M47.579 26.1381C47.7068 25.9345 47.8652 25.7784 48.054 25.6676C48.2429 25.5579 48.4488 25.5024 48.6704 25.5024C48.9509 25.5024 49.1703 25.5771 49.3309 25.7264C49.4904 25.8757 49.582 26.0894 49.6046 26.3665H49.0878C49.0652 26.2376 49.0131 26.1369 48.9317 26.0646C48.8503 25.9922 48.7394 25.956 48.5992 25.956C48.4024 25.956 48.235 26.034 48.0947 26.1901C47.9545 26.3462 47.8618 26.5645 47.8176 26.8438C47.8041 26.9445 47.7962 27.027 47.7962 27.0892C47.7962 27.2974 47.8425 27.4568 47.9353 27.5688C48.028 27.6808 48.157 27.7362 48.3221 27.7362C48.5992 27.7362 48.8039 27.5993 48.9362 27.3256H49.4531C49.3434 27.5903 49.185 27.8006 48.9758 27.9567C48.7666 28.1128 48.5257 28.1908 48.2508 28.1908C47.959 28.1908 47.7283 28.097 47.5575 27.9092C47.3867 27.7215 47.3008 27.467 47.3008 27.1458C47.3008 27.0485 47.3087 26.9479 47.3257 26.8438C47.3675 26.5758 47.4523 26.3405 47.5801 26.1381H47.579Z" fill="black"/>
<path d="M52.08 25.7228C52.2203 25.8687 52.2904 26.0779 52.2904 26.3482C52.2904 26.4206 52.2836 26.5088 52.2689 26.6129L52.0246 28.1476H51.5496L51.7803 26.6932C51.7916 26.605 51.7973 26.5416 51.7973 26.5043C51.7973 26.3312 51.7543 26.1989 51.6695 26.1073C51.5835 26.0157 51.4659 25.9705 51.3144 25.9705C51.1323 25.9705 50.9784 26.0327 50.854 26.1571C50.7296 26.2815 50.6505 26.4602 50.6165 26.6932V26.6841L50.3858 28.1488H49.9062L50.4571 24.6528H50.9366L50.7477 25.8483C50.8461 25.7386 50.9626 25.6526 51.0972 25.5927C51.2318 25.5328 51.3732 25.5034 51.5213 25.5034C51.7543 25.5034 51.9409 25.5769 52.08 25.7228Z" fill="black"/>
<path d="M53.3651 27.5005L52.6548 28.8045H52.3438L52.8437 27.5005H53.3651Z" fill="black"/>
<path d="M55.7327 28.0846C55.5902 28.0201 55.476 27.9251 55.3923 27.8007C55.3086 27.6763 55.2656 27.5293 55.2656 27.3585C55.2656 27.337 55.2679 27.2974 55.2747 27.2409H55.7497C55.7384 27.3856 55.7757 27.5066 55.8628 27.6028C55.9499 27.6989 56.0743 27.7464 56.2372 27.7464C56.4113 27.7464 56.5471 27.7057 56.6455 27.6254C56.7439 27.5451 56.7925 27.4297 56.7925 27.2782C56.7925 27.1866 56.7676 27.1085 56.719 27.0441C56.6703 26.9796 56.6081 26.9253 56.5335 26.8812C56.4588 26.8371 56.3559 26.7851 56.2247 26.7251C56.0505 26.6437 55.9126 26.569 55.8085 26.5034C55.7045 26.4378 55.6151 26.3462 55.5416 26.2297C55.4669 26.1132 55.4296 25.9673 55.4296 25.7909C55.4296 25.5952 55.4749 25.4245 55.5642 25.2786C55.6536 25.1327 55.778 25.0195 55.9363 24.9404C56.0947 24.8612 56.2734 24.8228 56.4724 24.8228C56.6715 24.8228 56.8434 24.8601 56.987 24.9336C57.1307 25.0071 57.2404 25.1112 57.315 25.2458C57.3897 25.3792 57.4225 25.5364 57.4134 25.7162H56.909C56.9203 25.5873 56.8852 25.4799 56.8038 25.3928C56.7224 25.3057 56.6047 25.2627 56.4509 25.2627C56.2881 25.2627 56.1591 25.3046 56.0619 25.3883C55.9646 25.472 55.9171 25.5839 55.9171 25.7264C55.9171 25.8146 55.942 25.8916 55.9906 25.956C56.0392 26.0205 56.1014 26.0759 56.1772 26.1212C56.253 26.1664 56.3548 26.2207 56.4837 26.284C56.6579 26.3722 56.797 26.4514 56.9022 26.5204C57.0074 26.5894 57.0979 26.6833 57.1736 26.802C57.2494 26.9196 57.2867 27.0655 57.2867 27.2386C57.2867 27.4218 57.2415 27.5847 57.1521 27.7272C57.0628 27.8708 56.9361 27.9828 56.7733 28.0631C56.6104 28.1434 56.4238 28.183 56.2134 28.183C56.0336 28.183 55.873 28.1502 55.7293 28.0857L55.7327 28.0846Z" fill="black"/>
<path d="M61.586 25.7256C61.7319 25.8737 61.8042 26.083 61.8042 26.3533C61.8042 26.4257 61.7975 26.5128 61.7828 26.6134L61.5385 28.1482H61.0634L61.2942 26.6937C61.3055 26.6055 61.3111 26.5422 61.3111 26.5048C61.3111 26.3318 61.2682 26.1995 61.1833 26.1079C61.0974 26.0163 60.9797 25.971 60.8282 25.971C60.6461 25.971 60.4923 26.0332 60.3679 26.1576C60.2435 26.282 60.1643 26.4607 60.1304 26.6937L59.8996 28.1482H59.4246L59.6553 26.6937C59.6666 26.6055 59.6723 26.5422 59.6723 26.5048C59.6723 26.3318 59.6293 26.1995 59.5445 26.1079C59.4585 26.0163 59.3409 25.971 59.1894 25.971C59.0073 25.971 58.8534 26.0332 58.729 26.1576C58.6046 26.282 58.5254 26.4607 58.4915 26.6937V26.679L58.2608 28.1482H57.7812L58.1895 25.5458H58.6691L58.6227 25.8477C58.7155 25.7403 58.8263 25.6566 58.9575 25.5955C59.0876 25.5344 59.2233 25.5039 59.3635 25.5039C59.549 25.5039 59.7074 25.548 59.8408 25.6362C59.9743 25.7245 60.067 25.8523 60.1202 26.0185C60.2129 25.8613 60.3407 25.7358 60.5025 25.643C60.6653 25.5503 60.8316 25.5039 61.0024 25.5039C61.2467 25.5039 61.4412 25.5774 61.5871 25.7256H61.586Z" fill="black"/>
<path d="M62.5551 26.1403C62.6829 25.939 62.8389 25.7818 63.0244 25.6698C63.2099 25.5579 63.4033 25.5024 63.6046 25.5024C63.7867 25.5024 63.9394 25.542 64.0627 25.6223C64.186 25.7026 64.2787 25.8022 64.3398 25.922L64.3986 25.5443H64.8827L64.4744 28.1467H63.9903L64.0537 27.7599C63.953 27.8832 63.8263 27.985 63.6725 28.0664C63.5187 28.1479 63.3536 28.1897 63.1737 28.1897C62.9939 28.1897 62.8446 28.1456 62.7089 28.0574C62.5732 27.9692 62.4668 27.8436 62.3888 27.6819C62.3119 27.5202 62.2734 27.3335 62.2734 27.122C62.2734 27.027 62.2814 26.932 62.2983 26.8336C62.3402 26.5724 62.425 26.3405 62.5528 26.1392L62.5551 26.1403ZM64.2143 26.6504C64.2143 26.4389 64.1588 26.2738 64.048 26.1516C63.9372 26.0306 63.7992 25.9695 63.634 25.9695C63.5108 25.9695 63.3897 26.0035 63.2721 26.0713C63.1545 26.1392 63.0516 26.2387 62.9656 26.3688C62.8785 26.5 62.8208 26.6549 62.7937 26.8336C62.7824 26.8936 62.7767 26.9581 62.7767 27.027C62.7767 27.2408 62.8322 27.4105 62.943 27.5349C63.0538 27.6593 63.1918 27.7215 63.3569 27.7215C63.4802 27.7215 63.6012 27.6864 63.7189 27.6174C63.8365 27.5484 63.9394 27.4466 64.0254 27.3132C64.1113 27.1797 64.1701 27.0225 64.1973 26.8427C64.2086 26.7827 64.2143 26.7183 64.2143 26.6493V26.6504Z" fill="black"/>
<path d="M66.3646 25.6348C66.4946 25.5466 66.6405 25.5024 66.8 25.5024L66.7118 26.06H66.5896C66.4042 26.06 66.256 26.1121 66.144 26.2161C66.032 26.3202 65.9529 26.5 65.9088 26.7545L65.6905 28.1479H65.2109L65.6192 25.5454H66.0988L66.0275 26.0035C66.1225 25.8463 66.2356 25.723 66.3657 25.6348H66.3646Z" fill="black"/>
<path d="M67.6035 27.4251C67.5979 27.4692 67.5956 27.4975 67.5956 27.5099C67.5956 27.5755 67.6137 27.6242 67.6499 27.6536C67.6861 27.683 67.746 27.6988 67.8309 27.6988H68.1249L68.0537 28.1478H67.6748C67.4893 28.1478 67.3479 28.106 67.2507 28.0223C67.1523 27.9386 67.1036 27.8063 67.1036 27.623C67.1036 27.554 67.1093 27.4873 67.1206 27.4251L67.3479 25.9842H67.0742L67.141 25.5454H67.418L67.5187 24.8984H68.0028L67.9021 25.5454H68.4608L68.3941 25.9842H67.8309L67.6035 27.4251Z" fill="black"/>
<path d="M70.7083 25.7776C70.8802 25.9608 70.9673 26.2063 70.9673 26.515C70.9673 26.5874 70.9605 26.6745 70.9458 26.7752C70.9345 26.8442 70.9153 26.929 70.887 27.0296H69.117C69.1147 27.0523 69.1125 27.0851 69.1125 27.1292C69.1125 27.3147 69.1634 27.4628 69.2663 27.5737C69.3681 27.6834 69.5027 27.7388 69.6678 27.7388C69.9291 27.7388 70.1292 27.6178 70.2695 27.3746H70.7864C70.68 27.6144 70.5228 27.81 70.3159 27.9627C70.1089 28.1154 69.8691 28.1923 69.5965 28.1923C69.4031 28.1923 69.2335 28.1493 69.0876 28.0645C68.9417 27.9797 68.8286 27.8575 68.7472 27.6981C68.6657 27.5386 68.625 27.3531 68.625 27.1382C68.625 27.0466 68.6329 26.9493 68.6499 26.8453C68.6917 26.5772 68.7777 26.342 68.9066 26.1395C69.0356 25.936 69.1962 25.7799 69.3884 25.669C69.5807 25.5593 69.7899 25.5039 70.0173 25.5039C70.3057 25.5039 70.5364 25.5955 70.7095 25.7776H70.7083ZM70.4753 26.5184C70.4753 26.3454 70.4244 26.2085 70.3215 26.1079C70.2197 26.0072 70.0863 25.9563 69.9245 25.9563C69.7538 25.9563 69.5988 26.0174 69.4619 26.1407C69.3251 26.2639 69.2312 26.4302 69.1803 26.6417H70.4674C70.4731 26.5852 70.4753 26.5444 70.4753 26.5184Z" fill="black"/>
<path d="M72.4544 25.6348C72.5845 25.5466 72.7304 25.5024 72.8899 25.5024L72.8016 26.06H72.6795C72.494 26.06 72.3458 26.1121 72.2339 26.2161C72.1219 26.3202 72.0427 26.5 71.9986 26.7545L71.7803 28.1479H71.3008L71.7091 25.5454H72.1886L72.1174 26.0035C72.2124 25.8463 72.3255 25.723 72.4555 25.6348H72.4544Z" fill="black"/>
<path d="M76.2541 27.477H75.0303L74.7148 28.1477H74.2148L75.779 24.8599H76.3344L76.8637 28.1477H76.3592L76.2541 27.477ZM76.1919 27.0574L75.9521 25.5125L75.2294 27.0574H76.1919Z" fill="black"/>
<path d="M77.7235 26.1381C77.8513 25.9345 78.0097 25.7784 78.1986 25.6676C78.3874 25.5579 78.5933 25.5024 78.815 25.5024C79.0955 25.5024 79.3149 25.5771 79.4755 25.7264C79.6349 25.8757 79.7266 26.0894 79.7492 26.3665H79.2323C79.2097 26.2376 79.1577 26.1369 79.0762 26.0646C78.9948 25.9922 78.884 25.956 78.7437 25.956C78.5469 25.956 78.3795 26.034 78.2393 26.1901C78.099 26.3462 78.0063 26.5645 77.9622 26.8438C77.9486 26.9445 77.9407 27.027 77.9407 27.0892C77.9407 27.2974 77.9871 27.4568 78.0798 27.5688C78.1726 27.6808 78.3015 27.7362 78.4666 27.7362C78.7437 27.7362 78.9484 27.5993 79.0808 27.3256H79.5976C79.4879 27.5903 79.3296 27.8006 79.1203 27.9567C78.9111 28.1128 78.6702 28.1908 78.3954 28.1908C78.1036 28.1908 77.8728 28.097 77.7021 27.9092C77.5313 27.7215 77.4453 27.467 77.4453 27.1458C77.4453 27.0485 77.4532 26.9479 77.4702 26.8438C77.512 26.5758 77.5969 26.3405 77.7247 26.1381H77.7235Z" fill="black"/>
<path d="M80.3519 26.1403C80.4797 25.939 80.6358 25.7818 80.8213 25.6698C81.0068 25.5579 81.2002 25.5024 81.4015 25.5024C81.5836 25.5024 81.7363 25.542 81.8596 25.6223C81.9828 25.7026 82.0756 25.8022 82.1367 25.922L82.1955 25.5443H82.6795L82.2713 28.1467H81.7872L81.8505 27.7599C81.7499 27.8832 81.6232 27.985 81.4694 28.0664C81.3156 28.1479 81.1504 28.1897 80.9706 28.1897C80.7908 28.1897 80.6415 28.1456 80.5058 28.0574C80.37 27.9692 80.2637 27.8436 80.1857 27.6819C80.1088 27.5202 80.0703 27.3335 80.0703 27.122C80.0703 27.027 80.0782 26.932 80.0952 26.8336C80.137 26.5724 80.2219 26.3405 80.3497 26.1392L80.3519 26.1403ZM82.0111 26.6504C82.0111 26.4389 81.9557 26.2738 81.8449 26.1516C81.734 26.0306 81.596 25.9695 81.4309 25.9695C81.3076 25.9695 81.1866 26.0035 81.069 26.0713C80.9514 26.1392 80.8484 26.2387 80.7625 26.3688C80.6754 26.5 80.6177 26.6549 80.5906 26.8336C80.5793 26.8936 80.5736 26.9581 80.5736 27.027C80.5736 27.2408 80.629 27.4105 80.7399 27.5349C80.8507 27.6593 80.9887 27.7215 81.1538 27.7215C81.2771 27.7215 81.3981 27.6864 81.5157 27.6174C81.6334 27.5484 81.7363 27.4466 81.8222 27.3132C81.9082 27.1797 81.967 27.0225 81.9942 26.8427C82.0055 26.7827 82.0111 26.7183 82.0111 26.6493V26.6504Z" fill="black"/>
<path d="M83.3095 26.1403C83.4373 25.9389 83.5934 25.7817 83.7789 25.6698C83.9643 25.5578 84.1589 25.5024 84.3636 25.5024C84.5151 25.5024 84.6576 25.5397 84.7922 25.6132C84.9268 25.6867 85.0286 25.7851 85.0987 25.9084L85.2967 24.6519H85.7807L85.2299 28.1478H84.7459L84.8092 27.7553C84.7085 27.8843 84.583 27.9895 84.4326 28.0698C84.2821 28.1501 84.1182 28.1908 83.9383 28.1908C83.7585 28.1908 83.6047 28.1467 83.4678 28.0585C83.331 27.9702 83.2235 27.8447 83.1466 27.683C83.0697 27.5212 83.0312 27.3346 83.0312 27.1231C83.0312 27.0281 83.0392 26.9331 83.0561 26.8347C83.098 26.5734 83.1828 26.3416 83.3106 26.1403H83.3095ZM84.9687 26.6503C84.9687 26.4388 84.9133 26.2737 84.8024 26.1516C84.6916 26.0306 84.5536 25.9695 84.3885 25.9695C84.2652 25.9695 84.1442 26.0034 84.0265 26.0713C83.9089 26.1391 83.806 26.2387 83.72 26.3687C83.6329 26.4999 83.5753 26.6549 83.5481 26.8336C83.5368 26.8935 83.5312 26.958 83.5312 27.027C83.5312 27.2407 83.5866 27.4104 83.6974 27.5348C83.8083 27.6592 83.9462 27.7214 84.1114 27.7214C84.2346 27.7214 84.3557 27.6863 84.4733 27.6174C84.5909 27.5484 84.6938 27.4466 84.7798 27.3131C84.8657 27.1797 84.9246 27.0224 84.9517 26.8426C84.963 26.7827 84.9687 26.7182 84.9687 26.6492V26.6503Z" fill="black"/>
<path d="M88.0677 25.7776C88.2396 25.9608 88.3267 26.2063 88.3267 26.515C88.3267 26.5874 88.3199 26.6745 88.3052 26.7752C88.2939 26.8442 88.2747 26.929 88.2464 27.0296H86.4764C86.4741 27.0523 86.4718 27.0851 86.4718 27.1292C86.4718 27.3147 86.5227 27.4628 86.6257 27.5737C86.7275 27.6834 86.862 27.7388 87.0272 27.7388C87.2884 27.7388 87.4886 27.6178 87.6289 27.3746H88.1457C88.0394 27.6144 87.8822 27.81 87.6752 27.9627C87.4683 28.1154 87.2285 28.1923 86.9559 28.1923C86.7625 28.1923 86.5929 28.1493 86.447 28.0645C86.3011 27.9797 86.188 27.8575 86.1065 27.6981C86.0251 27.5386 85.9844 27.3531 85.9844 27.1382C85.9844 27.0466 85.9923 26.9493 86.0093 26.8453C86.0511 26.5772 86.1371 26.342 86.266 26.1395C86.3949 25.936 86.5555 25.7799 86.7478 25.669C86.9401 25.5593 87.1493 25.5039 87.3766 25.5039C87.6651 25.5039 87.8958 25.5955 88.0688 25.7776H88.0677ZM87.8336 26.5184C87.8336 26.3454 87.7827 26.2085 87.6798 26.1079C87.578 26.0072 87.4445 25.9563 87.2828 25.9563C87.112 25.9563 86.957 26.0174 86.8202 26.1407C86.6833 26.2639 86.5895 26.4302 86.5386 26.6417H87.8257C87.8313 26.5852 87.8336 26.5444 87.8336 26.5184Z" fill="black"/>
<path d="M92.4688 25.7256C92.6147 25.8737 92.6871 26.083 92.6871 26.3533C92.6871 26.4257 92.6803 26.5128 92.6656 26.6134L92.4213 28.1482H91.9463L92.177 26.6937C92.1883 26.6055 92.1939 26.5422 92.1939 26.5048C92.1939 26.3318 92.151 26.1995 92.0661 26.1079C91.9802 26.0163 91.8626 25.971 91.711 25.971C91.5289 25.971 91.3751 26.0332 91.2507 26.1576C91.1263 26.282 91.0471 26.4607 91.0132 26.6937L90.7824 28.1482H90.3074L90.5381 26.6937C90.5495 26.6055 90.5551 26.5422 90.5551 26.5048C90.5551 26.3318 90.5121 26.1995 90.4273 26.1079C90.3414 26.0163 90.2237 25.971 90.0722 25.971C89.8901 25.971 89.7363 26.0332 89.6118 26.1576C89.4874 26.282 89.4083 26.4607 89.3743 26.6937V26.679L89.1436 28.1482H88.6641L89.0724 25.5458H89.5519L89.5055 25.8477C89.5983 25.7403 89.7091 25.6566 89.8403 25.5955C89.9704 25.5344 90.1061 25.5039 90.2463 25.5039C90.4318 25.5039 90.5902 25.548 90.7236 25.6362C90.8571 25.7245 90.9498 25.8523 91.003 26.0185C91.0957 25.8613 91.2235 25.7358 91.3853 25.643C91.5481 25.5503 91.7144 25.5039 91.8852 25.5039C92.1295 25.5039 92.324 25.5774 92.4699 25.7256H92.4688Z" fill="black"/>
<path d="M94.0246 25.5448L93.6163 28.1472H93.1367L93.545 25.5448H94.0246ZM93.6581 25.1195C93.6106 25.0664 93.5869 24.9985 93.5869 24.916C93.5869 24.8062 93.6242 24.7101 93.6988 24.6298C93.7735 24.5495 93.8583 24.5088 93.9533 24.5088C94.0291 24.5088 94.0902 24.5359 94.1365 24.5891C94.1829 24.6422 94.2055 24.7101 94.2055 24.7927C94.2055 24.9035 94.1693 24.9985 94.0958 25.0788C94.0223 25.1591 93.9386 25.1987 93.8436 25.1987C93.7678 25.1987 93.7067 25.1716 93.6581 25.1184V25.1195Z" fill="black"/>
<path d="M96.4583 25.7776C96.6302 25.9608 96.7173 26.2063 96.7173 26.515C96.7173 26.5874 96.7105 26.6745 96.6958 26.7752C96.6845 26.8442 96.6653 26.929 96.637 27.0296H94.867C94.8647 27.0523 94.8625 27.0851 94.8625 27.1292C94.8625 27.3147 94.9134 27.4628 95.0163 27.5737C95.1181 27.6834 95.2527 27.7388 95.4178 27.7388C95.679 27.7388 95.8792 27.6178 96.0195 27.3746H96.5364C96.43 27.6144 96.2728 27.81 96.0659 27.9627C95.8589 28.1154 95.6191 28.1923 95.3465 28.1923C95.1531 28.1923 94.9835 28.1493 94.8376 28.0645C94.6917 27.9797 94.5786 27.8575 94.4971 27.6981C94.4157 27.5386 94.375 27.3531 94.375 27.1382C94.375 27.0466 94.3829 26.9493 94.3999 26.8453C94.4417 26.5772 94.5277 26.342 94.6566 26.1395C94.7856 25.936 94.9462 25.7799 95.1384 25.669C95.3307 25.5593 95.5399 25.5039 95.7673 25.5039C96.0557 25.5039 96.2864 25.5955 96.4594 25.7776H96.4583ZM96.2242 26.5184C96.2242 26.3454 96.1733 26.2085 96.0704 26.1079C95.9686 26.0072 95.8351 25.9563 95.6734 25.9563C95.5026 25.9563 95.3477 26.0174 95.2108 26.1407C95.074 26.2639 94.9801 26.4302 94.9292 26.6417H96.2163C96.2219 26.5852 96.2242 26.5444 96.2242 26.5184Z" fill="black"/>
<path d="M97.4671 28.0989C97.3348 28.0378 97.2318 27.9507 97.1561 27.8388C97.0803 27.7268 97.043 27.599 97.043 27.4542C97.043 27.4293 97.0452 27.3943 97.052 27.3502H97.5191C97.5078 27.4701 97.5406 27.5696 97.6164 27.6476C97.6922 27.7268 97.7985 27.7653 97.9365 27.7653C98.0744 27.7653 98.1819 27.7381 98.269 27.685C98.3561 27.6318 98.399 27.5526 98.399 27.4486C98.399 27.3604 98.3629 27.2891 98.2916 27.2359C98.2203 27.1828 98.1061 27.1228 97.9489 27.0561C97.8007 26.9905 97.6797 26.9283 97.587 26.8718C97.4942 26.8152 97.4151 26.7372 97.3472 26.6376C97.2793 26.5381 97.2465 26.4148 97.2465 26.2667C97.2465 26.1185 97.285 25.9828 97.3619 25.8674C97.4388 25.7521 97.5474 25.6627 97.6854 25.5982C97.8245 25.5338 97.9828 25.501 98.1627 25.501C98.3255 25.501 98.4703 25.5315 98.5981 25.5926C98.7259 25.6537 98.8254 25.7408 98.8967 25.8527C98.9679 25.9647 99.0041 26.0925 99.0041 26.2373C99.0041 26.2814 99.003 26.3142 98.9996 26.3368H98.5461C98.5574 26.2135 98.5257 26.1151 98.4511 26.0393C98.3764 25.9636 98.2712 25.9262 98.1333 25.9262C98.0122 25.9262 97.915 25.9545 97.8415 26.0111C97.7668 26.0676 97.7295 26.1445 97.7295 26.2429C97.7295 26.3413 97.7668 26.4182 97.8426 26.477C97.9184 26.5358 98.0349 26.5992 98.1921 26.6682C98.3346 26.7315 98.4511 26.7915 98.5416 26.848C98.6309 26.9046 98.7078 26.9803 98.7723 27.0742C98.8367 27.1692 98.8695 27.2868 98.8695 27.4282C98.8695 27.582 98.8277 27.7166 98.7451 27.832C98.6626 27.9473 98.5483 28.0356 98.4024 28.0966C98.2565 28.1577 98.0914 28.1883 97.9059 28.1883C97.7465 28.1883 97.6006 28.1577 97.4682 28.0966L97.4671 28.0989Z" fill="black"/>
</g>
<defs>
<clipPath id="clip0_504_2285">
<rect width="108" height="29.6211" fill="white"/>
</clipPath>
</defs>
</svg>
