<svg width="610" height="611" viewBox="0 0 610 611" fill="none" xmlns="http://www.w3.org/2000/svg">
<rect x="0.285156" y="0.642578" width="609.715" height="609.715" rx="135.492" fill="#E7FFF0"/>
<path opacity="0.35" d="M431.53 449.946H178.748C148.829 449.946 124.58 425.697 124.58 395.778V215.219C124.58 185.301 148.829 161.052 178.748 161.052H431.53C461.448 161.052 485.697 185.301 485.697 215.219V395.778C485.697 425.697 461.448 449.946 431.53 449.946Z" fill="#00A23A"/>
<path d="M413.469 341.61C402.617 341.61 393.011 346.485 386.385 354.069C391.928 360.407 395.413 368.622 395.413 377.722C395.413 386.822 391.928 395.02 386.385 401.375C393.011 408.959 402.617 413.834 413.469 413.834C433.42 413.834 449.58 397.674 449.58 377.722C449.58 357.77 433.42 341.61 413.469 341.61Z" fill="#00A23A"/>
<path d="M386.399 354.069C379.772 346.485 370.166 341.61 359.315 341.61C339.363 341.61 323.203 357.77 323.203 377.722C323.203 397.674 339.363 413.834 359.315 413.834C370.166 413.834 379.772 408.959 386.399 401.375C380.856 395.02 377.371 386.822 377.371 377.722C377.371 368.622 380.856 360.407 386.399 354.069Z" fill="#00A23A"/>
<path d="M485.697 233.276H124.58V287.443H485.697V233.276Z" fill="#00A23A"/>
</svg>
