<svg width="611" height="636" viewBox="0 0 611 636" fill="none" xmlns="http://www.w3.org/2000/svg">
<rect x="0.642578" y="25.4048" width="609.715" height="609.715" rx="135.492" fill="#E7FFF0"/>
<path opacity="0.35" d="M381.728 482.691H229.299C204.042 482.691 183.57 462.22 183.57 436.962V223.562C183.57 198.305 204.042 177.833 229.299 177.833H335.999L427.456 269.291V436.962C427.456 462.22 406.985 482.691 381.728 482.691Z" fill="#00A23A"/>
<path d="M336 238.805V177.833L427.457 269.291H366.486C349.642 269.291 336 255.648 336 238.805Z" fill="#00A23A"/>
<path d="M238.542 406.917C235.408 406.917 232.26 405.832 229.729 403.609C224.158 398.734 223.595 390.27 228.457 384.712L275.332 331.141C277.903 328.168 281.305 326.694 285.577 326.56C289.501 326.614 293.197 328.368 295.715 331.368L318.697 358.958L362.01 304.797C366.657 299.038 375.054 298.074 380.84 302.708C386.612 307.342 387.55 315.766 382.929 321.538L329.358 388.502C326.84 391.636 323.05 393.484 319.032 393.524C314.84 394.127 311.184 391.783 308.613 388.716L285.175 360.578L248.626 402.337C245.975 405.377 242.265 406.917 238.542 406.917Z" fill="#00A23A"/>
</svg>
