<svg width="58" height="33" viewBox="0 0 58 33" fill="none" xmlns="http://www.w3.org/2000/svg">
<path d="M44.7751 32.0547C41.1194 32.0547 37.9476 30.872 35.2597 28.5066C32.6792 26.0337 31.389 22.9694 31.389 19.3137C31.389 15.4431 32.8405 11.7337 35.7435 8.18554C38.6465 4.63742 41.9258 2.16448 45.5815 0.766736C46.0115 0.551701 46.5491 0.444183 47.1943 0.444183C48.4845 0.444183 48.7533 1.14306 48.0006 2.5408L45.4202 6.73403C48.8608 7.05659 51.8176 8.29306 54.2905 10.4434C56.7634 12.4863 57.9999 15.2818 57.9999 18.8299C57.9999 22.5931 56.8172 25.7649 54.4518 28.3453C52.0864 30.8183 48.8608 32.0547 44.7751 32.0547ZM14.1322 32.0547C10.4766 32.0547 7.30475 30.872 4.61677 28.5066C2.03632 26.0337 0.746094 22.9694 0.746094 19.3137C0.746094 15.228 2.1976 11.4649 5.10061 8.02426C8.11114 4.58366 11.3905 2.16448 14.9386 0.766736C15.3687 0.551701 15.9063 0.444183 16.5514 0.444183C17.8416 0.444183 18.1104 1.14306 17.3578 2.5408L14.7773 6.73403C18.2179 7.05659 21.1747 8.29306 23.6476 10.4434C26.1206 12.5938 27.357 15.3893 27.357 18.8299C27.357 22.7006 26.1206 25.8724 23.6476 28.3453C21.2822 30.8183 18.1104 32.0547 14.1322 32.0547Z" fill="#1ED760"/>
</svg>
