<svg width="610" height="610" viewBox="0 0 610 610" fill="none" xmlns="http://www.w3.org/2000/svg">
<rect x="0.285156" y="0.284668" width="609.715" height="609.715" rx="135.492" fill="#E7FFF0"/>
<path opacity="0.35" d="M429.956 492.366H180.324C145.854 492.366 117.916 464.428 117.916 429.958V201.129H492.364V429.958C492.364 464.428 464.426 492.366 429.956 492.366Z" fill="#00A23A"/>
<path d="M429.947 284.34C426.078 284.34 350.606 284.34 346.736 284.34C335.253 284.34 325.934 293.659 325.934 305.142C325.934 316.626 335.253 325.945 346.736 325.945C350.606 325.945 426.078 325.945 429.947 325.945C441.43 325.945 450.75 316.626 450.75 305.142C450.75 293.659 441.43 284.34 429.947 284.34Z" fill="#00A23A"/>
<path d="M429.947 367.55C426.078 367.55 350.606 367.55 346.736 367.55C335.253 367.55 325.934 376.87 325.934 388.353C325.934 399.836 335.253 409.156 346.736 409.156C350.606 409.156 426.078 409.156 429.947 409.156C441.43 409.156 450.75 399.836 450.75 388.353C450.75 376.87 441.43 367.55 429.947 367.55Z" fill="#00A23A"/>
<path d="M492.364 201.129H117.916V180.326C117.916 145.856 145.854 117.918 180.324 117.918H429.956C464.426 117.918 492.364 145.856 492.364 180.326V201.129Z" fill="#00A23A"/>
<path d="M263.527 409.156H180.316C168.833 409.156 159.514 399.836 159.514 388.353V305.142C159.514 293.659 168.833 284.34 180.316 284.34H263.527C275.01 284.34 284.33 293.659 284.33 305.142V388.353C284.33 399.836 275.01 409.156 263.527 409.156Z" fill="#00A23A"/>
</svg>
