<svg width="611" height="611" viewBox="0 0 611 611" fill="none" xmlns="http://www.w3.org/2000/svg">
<rect x="0.642578" y="0.642578" width="609.715" height="609.715" rx="135.492" fill="#E7FFF0"/>
<path d="M144.678 284.818C143.984 290.437 148.366 295.405 154.027 295.405H192.378C196.977 295.405 200.903 292.086 201.684 287.53C209.059 243.556 243.549 209.063 287.519 201.687C292.052 200.928 295.393 197.001 295.393 192.38V154.026C295.393 148.363 290.425 143.981 284.807 144.675C249.45 149.079 216.044 165.415 190.73 190.732C165.437 216.027 149.081 249.436 144.678 284.818Z" fill="#00A23A"/>
<path d="M365.566 390.162C347.67 402.94 326.694 409.687 304.894 409.687C253.593 409.687 210.187 372.916 201.684 322.26C200.925 317.726 196.999 314.385 192.378 314.385H154.027C148.366 314.385 143.984 319.353 144.678 324.972C154.7 405.587 223.571 466.395 304.894 466.395C341.119 466.395 375.371 454.637 403.961 432.379C408.429 428.886 408.841 422.291 404.828 418.278L377.692 391.138C374.438 387.884 369.297 387.45 365.544 390.14L365.566 390.162Z" fill="#00A23A"/>
<path d="M410.241 182.575L370.003 222.817C356.51 212.166 340.241 204.703 322.237 201.688C317.704 200.928 314.385 197.002 314.385 192.403V154.026C314.385 148.754 318.658 144.611 323.799 144.611C324.189 144.611 324.58 144.633 324.97 144.676C357.53 148.733 386.857 162.378 410.241 182.575Z" fill="#00A23A"/>
<path d="M466.402 304.906C466.402 323.021 463.452 340.658 457.747 357.319C452.021 373.98 443.517 389.686 432.389 403.983C428.919 408.473 422.303 408.885 418.29 404.872L391.153 377.733C387.899 374.479 387.466 369.337 390.155 365.584C402.932 347.687 409.678 326.709 409.678 304.906C409.678 279.698 400.784 256.399 385.752 238.197L425.925 198.042C451.196 226.678 466.402 264.252 466.402 304.906Z" fill="#00A23A"/>
<path d="M305.514 216.806C256.599 216.806 216.816 256.615 216.816 305.513C216.816 354.411 256.599 394.219 305.514 394.219C354.429 394.219 394.191 354.433 394.191 305.513C394.191 256.593 354.408 216.806 305.514 216.806Z" fill="#00A23A"/>
<path d="M364.857 309.959C362.406 309.959 360.41 307.963 360.41 305.511C360.41 275.183 335.834 250.604 305.508 250.604C290.953 250.604 276.984 256.396 266.68 266.679C264.836 268.523 263.122 270.497 261.561 272.58C260.086 274.554 257.287 274.945 255.335 273.469C253.361 271.994 252.971 269.196 254.446 267.243C256.268 264.835 258.242 262.557 260.389 260.41C285.292 235.483 325.703 235.483 350.606 260.41C362.58 272.363 369.304 288.612 369.304 305.533C369.304 307.984 367.308 309.98 364.857 309.98V309.959Z" fill="#E7FFF0"/>
<path d="M305.489 369.312C270.262 369.312 241.693 340.763 241.693 305.532C241.693 305.532 241.693 305.532 241.693 305.51C241.693 303.059 243.689 301.063 246.14 301.063C248.591 301.063 250.587 303.059 250.587 305.51C250.587 335.838 275.164 360.418 305.489 360.418C320.044 360.418 334.014 354.625 344.317 344.342C346.161 342.498 347.875 340.524 349.437 338.463C351.02 336.576 353.818 336.316 355.706 337.899C357.463 339.353 357.831 341.913 356.552 343.8C354.73 346.208 352.756 348.486 350.608 350.634C338.678 362.63 322.43 369.377 305.489 369.334V369.312Z" fill="#E7FFF0"/>
<path d="M355.832 360.307C353.381 360.307 351.385 358.311 351.385 355.86V343.516H339.043C336.591 343.516 334.596 341.52 334.596 339.069C334.596 336.617 336.591 334.622 339.043 334.622H355.832C358.283 334.622 360.279 336.617 360.279 339.069V355.86C360.279 358.311 358.283 360.307 355.832 360.307Z" fill="#E7FFF0"/>
<path d="M271.893 276.374H255.103C252.652 276.374 250.656 274.378 250.656 271.926V255.135C250.656 252.684 252.652 250.688 255.103 250.688C257.554 250.688 259.55 252.684 259.55 255.135V267.479H271.893C274.344 267.479 276.339 269.475 276.339 271.926C276.339 274.378 274.344 276.374 271.893 276.374Z" fill="#E7FFF0"/>
<path d="M305.477 265.441C283.351 265.441 265.412 283.382 265.412 305.51C265.412 327.637 283.351 345.578 305.477 345.578C327.603 345.578 345.542 327.637 345.542 305.51C345.52 283.403 327.603 265.463 305.477 265.441ZM320.314 309.957H305.477C303.026 309.957 301.03 307.961 301.03 305.51V287.699C301.03 285.247 303.026 283.252 305.477 283.252C307.928 283.252 309.924 285.247 309.924 287.699V301.062H320.314C322.765 301.062 324.761 303.058 324.761 305.51C324.761 307.961 322.765 309.957 320.314 309.957Z" fill="#E7FFF0"/>
</svg>
