<svg width="610" height="611" viewBox="0 0 610 611" fill="none" xmlns="http://www.w3.org/2000/svg">
<rect y="0.722656" width="609.715" height="609.715" rx="135.492" fill="#E7FFF0"/>
<path d="M450.509 273.794L430.178 268.706C427.562 259.796 423.986 251.172 419.511 243.039L430.321 225.036C435.082 217.127 433.835 206.991 427.296 200.472L409.968 183.143C403.45 176.604 393.315 175.357 385.407 180.119L367.425 190.909C359.272 186.454 350.669 182.878 341.739 180.262L336.651 159.908C334.424 150.958 326.373 144.664 317.137 144.684H292.616C283.38 144.684 275.329 150.958 273.102 159.908L268.014 180.262C259.104 182.878 250.481 186.454 242.328 190.909L224.326 180.098C216.418 175.337 206.283 176.604 199.764 183.123L182.416 200.472C175.897 206.991 174.651 217.127 179.392 225.036L190.181 243.039C185.726 251.193 182.15 259.796 179.535 268.706L159.182 273.794C150.232 276.022 143.939 284.073 143.959 293.31V317.832C143.959 327.069 150.232 335.12 159.182 337.348L179.535 342.436C182.15 351.346 185.726 359.97 190.181 368.103L179.371 386.106C174.63 394.015 175.877 404.151 182.395 410.67L199.744 428.019C206.262 434.558 216.397 435.805 224.305 431.043L242.308 420.254C250.461 424.709 259.064 428.285 267.973 430.9L273.061 451.254C275.288 460.205 283.339 466.499 292.575 466.478H317.096C326.332 466.478 334.383 460.205 336.61 451.254L341.699 430.9C350.608 428.285 359.231 424.709 367.384 420.254L385.386 431.064C393.294 435.825 403.43 434.558 409.948 428.039L427.296 410.69C433.815 404.171 435.061 394.035 430.321 386.127L419.511 368.123C423.966 359.97 427.542 351.366 430.178 342.457L450.509 337.368C459.48 335.141 465.753 327.089 465.753 317.853V293.33C465.753 284.093 459.48 276.042 450.509 273.815V273.794ZM304.856 396.079C254.875 396.079 214.354 355.556 214.354 305.571C214.354 255.586 254.875 215.063 304.856 215.063C354.838 215.063 395.358 255.586 395.358 305.571C395.297 355.535 354.817 396.017 304.856 396.079Z" fill="#00A23A"/>
<path d="M304.87 227.65C261.897 227.65 226.955 262.615 226.955 305.57C226.955 348.525 261.897 383.49 304.87 383.49C347.842 383.49 382.764 348.545 382.764 305.57C382.764 262.595 347.822 227.65 304.87 227.65Z" fill="#00A23A" stroke="#E7FFF0" stroke-width="1.00201" stroke-miterlimit="10"/>
<path d="M290.188 332.626L264.952 307.389C261.336 303.159 261.826 296.783 266.056 293.145C269.836 289.917 275.415 289.917 279.195 293.145L297.32 311.21L330.586 278.003C334.816 274.386 341.191 274.876 344.829 279.106C348.057 282.887 348.057 288.466 344.829 292.246L304.451 332.626C300.507 336.55 294.152 336.55 290.209 332.626H290.188Z" fill="white"/>
</svg>
