<svg width="83" height="82" viewBox="0 0 83 82" fill="none" xmlns="http://www.w3.org/2000/svg">
<path d="M74.2757 24.6104C73.8866 23.1666 73.126 21.8498 72.0698 20.7912C71.0136 19.7326 69.6986 18.969 68.2556 18.5766C62.9051 17.1074 41.4997 17.0835 41.4997 17.0835C41.4997 17.0835 20.0977 17.0596 14.7437 18.4639C13.3017 18.8744 11.9893 19.6487 10.9327 20.7125C9.87605 21.7763 9.11064 23.0939 8.70991 24.5387C7.29883 29.8892 7.28516 40.9865 7.28516 40.9865C7.28516 40.9865 7.27149 52.1385 8.67233 57.4344C9.45816 60.3624 11.7644 62.6755 14.6959 63.4648C20.1011 64.9339 41.4484 64.9579 41.4484 64.9579C41.4484 64.9579 62.8538 64.9818 68.2043 63.5809C69.6479 63.1892 70.9641 62.4274 72.023 61.371C73.0818 60.3145 73.8466 59 74.2416 57.5574C75.6561 52.2103 75.6663 41.1164 75.6663 41.1164C75.6663 41.1164 75.7347 29.9609 74.2757 24.6104ZM34.6527 51.2673L34.6697 30.7673L52.4603 41.0344L34.6527 51.2673Z" fill="#F5F5F5"/>
</svg>
